<svg width="46" height="46" viewBox="0 0 46 46" fill="none" xmlns="http://www.w3.org/2000/svg">
<path d="M41.9642 25.557C41.7798 25.3722 41.5486 25.2411 41.2953 25.1778C41.0421 25.1145 40.7764 25.1213 40.5267 25.1976C37.7857 26.0262 34.8713 26.0957 32.0939 25.3986C29.3165 24.7015 26.7803 23.264 24.7555 21.2392C22.7306 19.2143 21.2931 16.6781 20.596 13.9007C19.8989 11.1234 19.9684 8.20889 20.797 5.46789C20.8739 5.21813 20.8813 4.95213 20.8183 4.69849C20.7554 4.44486 20.6244 4.21319 20.4397 4.02839C20.2549 3.8436 20.0232 3.71268 19.7696 3.64971C19.5159 3.58674 19.2499 3.59411 19.0002 3.67101C15.2106 4.83188 11.8837 7.15838 9.4929 10.3195C7.40208 13.0954 6.12673 16.3993 5.81014 19.8601C5.49355 23.3209 6.14825 26.8014 7.70071 29.9106C9.25316 33.0198 11.6419 35.6345 14.5984 37.461C17.555 39.2874 20.9623 40.2533 24.4375 40.25C28.4919 40.2625 32.4384 38.9445 35.6716 36.4981C38.8326 34.1073 41.1591 30.7804 42.32 26.9909C42.396 26.742 42.4031 26.4772 42.3404 26.2247C42.2778 25.9722 42.1477 25.7414 41.9642 25.557ZM33.943 34.2017C30.8982 36.495 27.1276 37.6113 23.3251 37.345C19.5227 37.0788 15.9444 35.4479 13.249 32.7527C10.5535 30.0575 8.92242 26.4793 8.65586 22.6769C8.3893 18.8745 9.50525 15.1037 11.7983 12.0588C13.2922 10.086 15.2236 8.48673 17.4405 7.38695C17.3142 8.27322 17.2505 9.16728 17.25 10.0625C17.2552 15.0171 19.2258 19.7673 22.7292 23.2708C26.2327 26.7742 30.9829 28.7448 35.9375 28.75C36.8345 28.7497 37.7304 28.6861 38.6184 28.5595C37.5176 30.7768 35.9171 32.7082 33.943 34.2017Z" fill="#24E024"/>
</svg>
