<svg width="46" height="46" viewBox="0 0 46 46" fill="none" xmlns="http://www.w3.org/2000/svg">
<path d="M21.5625 7.1875V5.75C21.5625 5.36875 21.714 5.00312 21.9835 4.73353C22.2531 4.46395 22.6188 4.3125 23 4.3125C23.3812 4.3125 23.7469 4.46395 24.0165 4.73353C24.2861 5.00312 24.4375 5.36875 24.4375 5.75V7.1875C24.4375 7.56875 24.2861 7.93438 24.0165 8.20397C23.7469 8.47355 23.3812 8.625 23 8.625C22.6188 8.625 22.2531 8.47355 21.9835 8.20397C21.714 7.93438 21.5625 7.56875 21.5625 7.1875ZM34.5 23C34.5 25.2745 33.8255 27.4979 32.5619 29.3891C31.2983 31.2802 29.5022 32.7542 27.4009 33.6246C25.2995 34.495 22.9872 34.7228 20.7565 34.279C18.5257 33.8353 16.4766 32.74 14.8683 31.1317C13.26 29.5234 12.1647 27.4743 11.721 25.2435C11.2772 23.0128 11.505 20.7005 12.3754 18.5991C13.2458 16.4978 14.7198 14.7017 16.6109 13.4381C18.5021 12.1745 20.7255 11.5 23 11.5C26.049 11.5033 28.9721 12.716 31.1281 14.8719C33.284 17.0279 34.4967 19.951 34.5 23ZM31.625 23C31.625 21.2941 31.1192 19.6266 30.1714 18.2082C29.2237 16.7898 27.8767 15.6843 26.3006 15.0315C24.7246 14.3787 22.9904 14.2079 21.3173 14.5407C19.6443 14.8735 18.1074 15.695 16.9012 16.9012C15.695 18.1074 14.8735 19.6443 14.5407 21.3173C14.2079 22.9904 14.3787 24.7246 15.0315 26.3006C15.6843 27.8767 16.7898 29.2237 18.2082 30.1714C19.6266 31.1192 21.2941 31.625 23 31.625C25.2868 31.6226 27.4792 30.7132 29.0962 29.0962C30.7132 27.4792 31.6226 25.2868 31.625 23ZM10.483 12.517C10.7527 12.7868 11.1185 12.9383 11.5 12.9383C11.8815 12.9383 12.2473 12.7868 12.517 12.517C12.7868 12.2473 12.9383 11.8815 12.9383 11.5C12.9383 11.1185 12.7868 10.7527 12.517 10.483L11.0795 9.04547C10.8098 8.77574 10.444 8.6242 10.0625 8.6242C9.68104 8.6242 9.3152 8.77574 9.04547 9.04547C8.77574 9.3152 8.6242 9.68104 8.6242 10.0625C8.6242 10.444 8.77574 10.8098 9.04547 11.0795L10.483 12.517ZM10.483 33.483L9.04547 34.9205C8.77574 35.1902 8.6242 35.556 8.6242 35.9375C8.6242 36.319 8.77574 36.6848 9.04547 36.9545C9.3152 37.2243 9.68104 37.3758 10.0625 37.3758C10.444 37.3758 10.8098 37.2243 11.0795 36.9545L12.517 35.517C12.6506 35.3835 12.7565 35.2249 12.8288 35.0504C12.9011 34.8759 12.9383 34.6889 12.9383 34.5C12.9383 34.3111 12.9011 34.1241 12.8288 33.9496C12.7565 33.7751 12.6506 33.6165 12.517 33.483C12.3835 33.3494 12.2249 33.2435 12.0504 33.1712C11.8759 33.0989 11.6889 33.0617 11.5 33.0617C11.3111 33.0617 11.1241 33.0989 10.9496 33.1712C10.7751 33.2435 10.6165 33.3494 10.483 33.483ZM34.5 12.9375C34.6888 12.9376 34.8758 12.9006 35.0503 12.8284C35.2249 12.7563 35.3834 12.6505 35.517 12.517L36.9545 11.0795C37.2243 10.8098 37.3758 10.444 37.3758 10.0625C37.3758 9.68104 37.2243 9.3152 36.9545 9.04547C36.6848 8.77574 36.319 8.6242 35.9375 8.6242C35.556 8.6242 35.1902 8.77574 34.9205 9.04547L33.483 10.483C33.2817 10.684 33.1446 10.9402 33.0891 11.2192C33.0335 11.4982 33.062 11.7875 33.1709 12.0503C33.2798 12.3131 33.4642 12.5377 33.7008 12.6956C33.9374 12.8535 34.2155 12.9377 34.5 12.9375ZM35.517 33.483C35.2473 33.2132 34.8815 33.0617 34.5 33.0617C34.1185 33.0617 33.7527 33.2132 33.483 33.483C33.2132 33.7527 33.0617 34.1185 33.0617 34.5C33.0617 34.8815 33.2132 35.2473 33.483 35.517L34.9205 36.9545C35.054 37.0881 35.2126 37.194 35.3871 37.2663C35.5616 37.3386 35.7486 37.3758 35.9375 37.3758C36.1264 37.3758 36.3134 37.3386 36.4879 37.2663C36.6624 37.194 36.821 37.0881 36.9545 36.9545C37.0881 36.821 37.194 36.6624 37.2663 36.4879C37.3386 36.3134 37.3758 36.1264 37.3758 35.9375C37.3758 35.7486 37.3386 35.5616 37.2663 35.3871C37.194 35.2126 37.0881 35.054 36.9545 34.9205L35.517 33.483ZM7.1875 21.5625H5.75C5.36875 21.5625 5.00312 21.714 4.73353 21.9835C4.46395 22.2531 4.3125 22.6188 4.3125 23C4.3125 23.3812 4.46395 23.7469 4.73353 24.0165C5.00312 24.2861 5.36875 24.4375 5.75 24.4375H7.1875C7.56875 24.4375 7.93438 24.2861 8.20397 24.0165C8.47355 23.7469 8.625 23.3812 8.625 23C8.625 22.6188 8.47355 22.2531 8.20397 21.9835C7.93438 21.714 7.56875 21.5625 7.1875 21.5625ZM23 37.375C22.6188 37.375 22.2531 37.5265 21.9835 37.796C21.714 38.0656 21.5625 38.4313 21.5625 38.8125V40.25C21.5625 40.6312 21.714 40.9969 21.9835 41.2665C22.2531 41.536 22.6188 41.6875 23 41.6875C23.3812 41.6875 23.7469 41.536 24.0165 41.2665C24.2861 40.9969 24.4375 40.6312 24.4375 40.25V38.8125C24.4375 38.4313 24.2861 38.0656 24.0165 37.796C23.7469 37.5265 23.3812 37.375 23 37.375ZM40.25 21.5625H38.8125C38.4313 21.5625 38.0656 21.714 37.796 21.9835C37.5265 22.2531 37.375 22.6188 37.375 23C37.375 23.3812 37.5265 23.7469 37.796 24.0165C38.0656 24.2861 38.4313 24.4375 38.8125 24.4375H40.25C40.6312 24.4375 40.9969 24.2861 41.2665 24.0165C41.536 23.7469 41.6875 23.3812 41.6875 23C41.6875 22.6188 41.536 22.2531 41.2665 21.9835C40.9969 21.714 40.6312 21.5625 40.25 21.5625Z" fill="#134E13"/>
</svg>
